{
	"asset": {
		"generator": "Unity 2019.4.28f1c1",
		"extras": {
			"exporterVersion" : "2.2.1"
		},
		"version": "2.0"
	},
	"accessors": [
		{
			"bufferView": 2,
			"byteOffset": 0,
			"componentType": 5126,
			"count": 559,
			"max": [ 0.17, 0.17, 0.17 ],
			"min": [ -0.17, -0.17, -0.17 ],
			"type": "VEC3"
		},
		{
			"bufferView": 2,
			"byteOffset": 6708,
			"componentType": 5126,
			"count": 559,
			"max": [ 1, 1, 1 ],
			"min": [ -1, -1, -1 ],
			"type": "VEC3"
		},
		{
			"bufferView": 1,
			"byteOffset": 0,
			"componentType": 5126,
			"count": 559,
			"max": [ 1, 1 ],
			"min": [ 0, -1.192093E-07 ],
			"type": "VEC2"
		},
		{
			"bufferView": 3,
			"byteOffset": 0,
			"componentType": 5126,
			"count": 559,
			"max": [ 1, 1, 0.04912567, 1 ],
			"min": [ -1, -1, -0.04912568, 1 ],
			"type": "VEC4"
		},
		{
			"bufferView": 0,
			"byteOffset": 0,
			"componentType": 5123,
			"count": 2880,
			"max": [ 558 ],
			"min": [ 0 ],
			"type": "SCALAR"
		}
	],
	"buffers": [
		{
			"byteLength": 32592,
			"uri": "ball.bin"
		}
	],
	"bufferViews": [
		{
			"buffer": 0,
			"byteLength": 5760,
			"target": 34963,
			"byteOffset": 26832
		},
		{
			"buffer": 0,
			"byteLength": 4472,
			"target": 34962,
			"byteStride": 8,
			"byteOffset": 0
		},
		{
			"buffer": 0,
			"byteLength": 13416,
			"target": 34962,
			"byteStride": 12,
			"byteOffset": 4472
		},
		{
			"buffer": 0,
			"byteLength": 8944,
			"target": 34962,
			"byteStride": 16,
			"byteOffset": 17888
		}
	],
	"materials": [
		{
			"pbrMetallicRoughness": {
				"baseColorFactor": [1, 1, 1, 0.454902],
				"metallicFactor": 0,
				"roughnessFactor": 0.125
			},
			"alphaMode": "BLEND",
			"alphaCutoff": 0.294,
			"emissiveFactor": [0, 0, 0],
			"doubleSided": false,
			"name": "Ball"
		}
	],
	"meshes": [
		{
			"name": "mesh_Sphere001_14564Ball",
			"primitives": [
				{
					"attributes": {
						"POSITION": 0,
						"NORMAL": 1,
						"TEXCOORD_0": 2,
						"TANGENT": 3
					},
					"indices": 4,
					"material": 0,
					"mode": 4
				}
			]
		}
	],
	"nodes": [
		{
			"name": "UnityGlTF_root",
			"children": [
				1
			]
		},
		{
			"name": "node_Ball_-15008",
			"mesh": 0,
			"matrix": [1, 0, 0, 0, 0, 1, 0, 0, 0, 0, 1, 0, 0, 0.275, 0.01009549, 1]
		}
	],
	"scenes": [
		{
			"name":"defaultScene",
			"nodes": [
				0
			]
		}
	],
	"scene": 0
}