{
	"asset": {
		"generator": "Unity 2019.4.28f1c1",
		"extras": {
			"exporterVersion" : "2.2.1"
		},
		"version": "2.0"
	},
	"accessors": [
		{
			"bufferView": 2,
			"byteOffset": 0,
			"componentType": 5126,
			"count": 100,
			"max": [ 0.3285325, 0.2637972, -0.001613041 ],
			"min": [ -0.3285325, -0.2637972, -0.1508194 ],
			"type": "VEC3"
		},
		{
			"bufferView": 2,
			"byteOffset": 1200,
			"componentType": 5126,
			"count": 100,
			"max": [ 1, 0.6802273, 0.7179541 ],
			"min": [ -1, -0.7232813, -0.717954 ],
			"type": "VEC3"
		},
		{
			"bufferView": 1,
			"byteOffset": 0,
			"componentType": 5126,
			"count": 100,
			"max": [ 0.9887, 0.9855 ],
			"min": [ 0.0144, 0.009 ],
			"type": "VEC2"
		},
		{
			"bufferView": 3,
			"byteOffset": 0,
			"componentType": 5126,
			"count": 100,
			"max": [ 0.7885339, 1, 0.9999057, 1 ],
			"min": [ -0.7885334, -1, -0.4379798, -1 ],
			"type": "VEC4"
		},
		{
			"bufferView": 0,
			"byteOffset": 0,
			"componentType": 5123,
			"count": 342,
			"max": [ 99 ],
			"min": [ 0 ],
			"type": "SCALAR"
		}
	],
	"buffers": [
		{
			"byteLength": 5484,
			"uri": "bookgltf.bin"
		}
	],
	"bufferViews": [
		{
			"buffer": 0,
			"byteLength": 684,
			"target": 34963,
			"byteOffset": 4800
		},
		{
			"buffer": 0,
			"byteLength": 800,
			"target": 34962,
			"byteStride": 8,
			"byteOffset": 0
		},
		{
			"buffer": 0,
			"byteLength": 2400,
			"target": 34962,
			"byteStride": 12,
			"byteOffset": 800
		},
		{
			"buffer": 0,
			"byteLength": 1600,
			"target": 34962,
			"byteStride": 16,
			"byteOffset": 3200
		}
	],
	"images": [
		{
			"uri": "Assets/bookTexture2.jpg"
		}
	],
	"materials": [
		{
			"pbrMetallicRoughness": {
				"baseColorTexture" : {
					"index" : 0,
					"texCoord" : 0
				},
				"baseColorFactor": [1, 1, 1, 1],
				"metallicFactor": 0,
				"roughnessFactor": 0.69
			},
			"emissiveFactor": [0, 0, 0],
			"doubleSided": false,
			"name": "Book"
		}
	],
	"meshes": [
		{
			"name": "mesh_Rectangle002_13672book",
			"primitives": [
				{
					"attributes": {
						"POSITION": 0,
						"NORMAL": 1,
						"TEXCOORD_0": 2,
						"TANGENT": 3
					},
					"indices": 4,
					"material": 0,
					"mode": 4
				}
			]
		}
	],
	"nodes": [
		{
			"name": "UnityGlTF_root",
			"children": [
				1
			]
		},
		{
			"name": "node_book_-1180",
			"mesh": 0,
			"matrix": [1, 0, 0, 0, 0, -1.192093E-07, 1, 0, 0, -1, -1.192093E-07, 0, 0, 0, 5.984768E-10, 1]
		}
	],
	"samplers": [
		{
			"magFilter": 9729,
			"minFilter": 9985,
			"wrapS": 10497,
			"wrapT": 10497
		}
	],
	"scenes": [
		{
			"name":"defaultScene",
			"nodes": [
				0
			]
		}
	],
	"scene": 0,
	"textures": [
		{
			"sampler": 0,
			"source": 0
		}
	]
}