{
	"asset": {
		"generator": "Unity 2019.4.28f1c1",
		"extras": {
			"exporterVersion" : "2.2.1"
		},
		"version": "2.0"
	},
	"accessors": [
		{
			"bufferView": 1,
			"byteOffset": 0,
			"componentType": 5126,
			"count": 2656,
			"max": [ 0.2208875, 0.06683, 0 ],
			"min": [ -0.2208875, -0.0011275, -0.02 ],
			"type": "VEC3"
		},
		{
			"bufferView": 1,
			"byteOffset": 31872,
			"componentType": 5126,
			"count": 2656,
			"max": [ 1, 1, 1 ],
			"min": [ -1, -1, -1 ],
			"type": "VEC3"
		},
		{
			"bufferView": 2,
			"byteOffset": 0,
			"componentType": 5126,
			"count": 2656,
			"max": [ 1, 0, 0, 1 ],
			"min": [ 1, 0, 0, 1 ],
			"type": "VEC4"
		},
		{
			"bufferView": 0,
			"byteOffset": 0,
			"componentType": 5123,
			"count": 7656,
			"max": [ 2655 ],
			"min": [ 0 ],
			"type": "SCALAR"
		}
	],
	"buffers": [
		{
			"byteLength": 121552,
			"uri": "text.bin"
		}
	],
	"bufferViews": [
		{
			"buffer": 0,
			"byteLength": 15312,
			"target": 34963,
			"byteOffset": 106240
		},
		{
			"buffer": 0,
			"byteLength": 63744,
			"target": 34962,
			"byteStride": 12,
			"byteOffset": 0
		},
		{
			"buffer": 0,
			"byteLength": 42496,
			"target": 34962,
			"byteStride": 16,
			"byteOffset": 63744
		}
	],
	"materials": [
		{
			"pbrMetallicRoughness": {
				"baseColorFactor": [0.9411765, 0.7215686, 0.2313726, 1],
				"metallicFactor": 0,
				"roughnessFactor": 0
			},
			"emissiveFactor": [0, 0, 0],
			"doubleSided": false,
			"name": "Text02"
		}
	],
	"meshes": [
		{
			"name": "mesh_TextPlus001_14600BOOKASK",
			"primitives": [
				{
					"attributes": {
						"POSITION": 0,
						"NORMAL": 1,
						"TANGENT": 2
					},
					"indices": 3,
					"material": 0,
					"mode": 4
				}
			]
		}
	],
	"nodes": [
		{
			"name": "UnityGlTF_root",
			"children": [
				1
			]
		},
		{
			"name": "node_BOOKASK_-15896",
			"mesh": 0,
			"matrix": [1, 0, 0, 0, 0, 1, 0, 0, 0, 0, 1, 0, 0, 0, 0, 1]
		}
	],
	"scenes": [
		{
			"name":"defaultScene",
			"nodes": [
				0
			]
		}
	],
	"scene": 0
}